<?xml version="1.0" encoding="utf-8"?>
<svg xmlns="http://www.w3.org/2000/svg" width="1106" height="1034" viewBox="0 0 1106 1034">
  <g id="previewTransform" transform="translate(564.06 501.49) scale(1.58) translate(-553 -517)">
    <path d="M 256 356 Q 256 256 356 256 L 732 256 Q 832 256 832 356 L 832 700 Q 832 800 732 800 L 356 800 Q 256 800 256 700 L 256 356 Z" fill="none" stroke="#4fb3b3" stroke-width="3.5rem" stroke-linecap="round" stroke-linejoin="round"/>
    <path d="M 832 496 Q 832 544 832 544 Q 832 592 802.0146377173876 629.4817028532655 L 787.9902415217416 647.012198097823 Q 768 672 736 672 L 736 672 Q 704 672 704 704 L 704 718.0588745030457 Q 704 752 680 776 L 680 776 Q 656 800 622.0588745030457 800 L 576 800 L 576 800" fill="none" stroke="#4fb3b3" stroke-width="3.5rem" stroke-linecap="round" stroke-linejoin="round"/>
    <path d="M 352 352 L 480 352" fill="none" stroke="#4fb3b3" stroke-width="3.5rem" stroke-linecap="round" stroke-linejoin="round"/>
    <path d="M 352 448 L 416 448" fill="none" stroke="#4fb3b3" stroke-width="3.5rem" stroke-linecap="round" stroke-linejoin="round"/>
    <path d="M 384 704 Q 384 704 384 704 L 512 704 Q 512 704 512 704 L 732.2229123600034 483.77708763999664 Q 768 448 752 400 L 752 400 Q 736 352 688 336 L 688 336 Q 640 320 604.2229123600034 355.77708763999664 L 384 576 Q 384 576 384 576 L 384 704 Z" fill="none" stroke="#4fb3b3" stroke-width="3.5rem" stroke-linecap="round" stroke-linejoin="round"/>
    <path d="M 576 384 L 704 512" fill="none" stroke="#4fb3b3" stroke-width="3.5rem" stroke-linecap="round" stroke-linejoin="round"/>
    <path d="M 416 544 Q 448 544 448 544 Q 480 544 480 576 L 480 608 Q 480 608 480 608 L 512 608 Q 544 608 544 640 L 544 672 L 544 672" fill="none" stroke="#4fb3b3" stroke-width="3.5rem" stroke-linecap="round" stroke-linejoin="round"/>
  </g>
</svg>